<?xml version="1.0" encoding="utf-8"?>
<!-- Generator: Adobe Illustrator 27.8.1, SVG Export Plug-In . SVG Version: 6.00 Build 0)  -->
<svg version="1.1" id="Layer_1" xmlns="http://www.w3.org/2000/svg" xmlns:xlink="http://www.w3.org/1999/xlink" x="0px" y="0px"
	 viewBox="0 0 585.4 164.8" style="enable-background:new 0 0 585.4 164.8;" xml:space="preserve">
<g>
	<polygon points="63.4,26.3 63.4,73.1 20.4,73.1 20.4,26.3 0,26.3 0,138 20.4,138 20.4,92.8 63.4,92.8 63.4,138 83.8,138 83.8,26.3 
			"/>
	<g>
		<path d="M149.1,101.9c0,9.3-7.6,16.9-16.9,16.9s-16.9-7.6-16.9-16.9V54.1H96V102c0,20,16.2,36.2,36.2,36.2s36.2-16.2,36.2-36.2
			V54.1h-19.3L149.1,101.9L149.1,101.9z"/>
		<path d="M292.6,59c0-9.8,6.5-12.9,13.6-12.9c5.7,0,13.3,4.4,18.2,9.7l12.7-14.9c-6.3-8.6-19.2-14.5-29.7-14.5
			c-21,0-36.2,12.3-36.2,32.7c0,37.8,46.2,25.8,46.2,47c0,6.5-6.3,12.3-13.6,12.3c-11.5,0-15.2-5.6-20.4-11.5l-14.1,14.6
			c9,11,20.1,16.7,33.4,16.7c20,0,36-12.4,36-31.9C338.8,64.1,292.5,77.2,292.6,59"/>
		<path d="M578.6,120.2c-11.4,0-14.7-4.9-14.7-12.5V74.1h17.8v-17h-17.8V34.7l-19.6,8.8v68.3c0,17.5,12.1,26.3,28.6,26.3
			c2.6,0,5.2-0.2,7.7-0.6l4.8-17.6C583.3,120,580.8,120.2,578.6,120.2"/>
		<path d="M222.8,54.6c-9.6,0-16.3,2.8-22.8,9.1V27h-19.4v68.2c0,25.5,18.4,43,39.2,43c23,0,43.2-17.8,43.2-41.8
			C263.1,72.7,244.5,54.6,222.8,54.6 M222.7,118.6c-12.2,0-22-9.8-22-22s9.8-22,22-22s22,9.8,22,22S234.9,118.6,222.7,118.6"/>
		<path d="M433.4,95.4c0-24-20.2-41.8-43.2-41.8c-20.7,0-39.2,17.5-39.2,43v68.2h19.4V128c6.5,6.3,13.2,9.1,22.7,9.1
			C414.7,137.1,433.3,119,433.4,95.4 M415,95.1c0,12.2-9.8,22-22,22s-22-9.8-22-22s9.8-22,22-22S415,83,415,95.1"/>
	</g>
	<path d="M495.8,53.3V34c5.2-2.4,8.5-7.6,8.6-13.4v-0.5c0-8.2-6.6-14.8-14.8-14.8h-0.5c-8.2,0-14.8,6.6-14.8,14.8v0.5
		c0,5.7,3.4,11,8.6,13.4v19.3c-7.3,1.1-14.2,4.2-20,8.8L410,20.9c0.4-1.4,0.6-2.8,0.6-4.2C410.5,7.5,403,0,393.8,0S377,7.5,377,16.7
		s7.5,16.7,16.7,16.7c2.9,0,5.8-0.8,8.3-2.2l52,40.5c-9.6,14.5-9.3,33.4,0.6,47.6l-15.8,15.8c-1.3-0.4-2.6-0.6-3.9-0.6
		c-7.6,0-13.8,6.2-13.8,13.8s6.2,13.8,13.8,13.8s13.8-6.2,13.8-13.8c0-1.3-0.2-2.7-0.6-3.9l15.7-15.7c18.5,14.2,45.1,10.6,59.2-7.9
		s10.6-45.1-7.9-59.2C509.4,57.2,502.8,54.4,495.8,53.3 M489.3,116.7c-12,0-21.7-9.7-21.7-21.7s9.7-21.7,21.7-21.7S511,83,511,95
		S501.3,116.7,489.3,116.7"/>
</g>
</svg>
