<?xml version="1.0" encoding="UTF-8"?>
<svg id="Layer_2" data-name="Layer 2" xmlns="http://www.w3.org/2000/svg" viewBox="0 0 63.92 58.67">
  <defs>
    <style>
      .cls-1 {
        fill: #fff;
      }
    </style>
  </defs>
  <g id="Layer_1-2" data-name="Layer 1">
    <path class="cls-1" d="M28.78,1.09C15.95,4.76,7.44,18.17,9.33,31.34c.36,2.54,1.31,4.95,2.07,7.38.27.21,1.7-2.58,1.74-2.92.1-.72-1.03-4.02-1.14-5.33C10.44,11.33,28.68-3.06,46.67,5.09c18.65,8.44,19.41,35.54,1.2,44.78-4.61,2.34-14.41,5.29-16.09-1.85,10.56-2.42,17.1-11.61,16.25-22.43,1.98-1.48,3.8-2.04,6.09-2.75.35-.11.53.22.44-.45-.26-2.1-2.67-3.76-4.39-4.61-.6-.3-1.85-.41-2.14-.71-.25-.25-.41-1.32-.72-1.83-1.97-3.31-5.14-5.59-9.08-5.91-9.6-.78-11.61,7.76-15.63,14.38-3.9,6.43-7.95,12.85-11.99,19.19-3.4,5.34-6.84,10.69-10.62,15.77,1.28.11,2.98-.67,4.19-1.21,4.66-2.09,9.4-5.9,12.91-9.59.18-.19.73-.74.73-.74,14.66,14.67,39.03,8.34,44.91-11.47C68.94,14.77,49.78-4.91,28.78,1.09ZM19.49,44.42c6.75-.96,18.49-5.77,18.47-13.89-.01-5.12-3.1-8.46-7.61-7.3,2.47-5.02,5.4-11.05,11.74-8.45,1.85.76,3.78,3.09,4.09,5.06,1.86-.07,4.28.14,5.4,1.8-1.48.22-4.27.51-5.4,1.5-1.84,1.63-1.02,5.12-1.2,7.34-.83,10.23-10.26,15.26-19.62,15.76-2.23.12-4.59.36-5.86-1.81ZM40.27,21.11c-1.16,0-2.1-.94-2.1-2.1s.94-2.1,2.1-2.1,2.1.94,2.1,2.1-.94,2.1-2.1,2.1Z"/>
  </g>
</svg>